<svg width="20" height="19" viewBox="0 0 20 19" fill="none" xmlns="http://www.w3.org/2000/svg">
<path fill-rule="evenodd" clip-rule="evenodd" d="M19.7212 13.0119V8.94052V0.0668945H2.69993L0.572266 2.3636V14.4735H5.89141V18.2317H8.23184L10.785 15.5174H17.168L19.7212 13.0119ZM7.16792 12.8032H3.76367C3.52962 12.8032 3.33813 12.6153 3.33813 12.3857V2.15489C3.33813 1.92522 3.52962 1.7373 3.76367 1.7373H17.3807C17.6147 1.7373 17.8062 1.92522 17.8062 2.15489V10.089C17.8062 10.2038 17.7637 10.3082 17.6839 10.3865L15.3435 12.6832C15.2637 12.7615 15.152 12.8032 15.0403 12.8032H11.1307L7.83282 15.0269C7.76367 15.0738 7.67856 15.0999 7.59345 15.0999C7.5243 15.0999 7.46048 15.0843 7.39665 15.053C7.25303 14.9799 7.16792 14.839 7.16792 14.6824V12.8032Z" fill="white"/>
</svg>
