<svg width="31" height="29" viewBox="0 0 31 29" fill="none" xmlns="http://www.w3.org/2000/svg">
<path d="M24.1587 0.863779C23.8594 0.658661 23.478 0.641079 23.1553 0.822756C21.4009 1.83076 19.7052 2.98529 18.1034 4.25702C17.8922 4.42697 17.7631 4.67898 17.7513 4.94856C17.7396 5.21814 17.8452 5.48187 18.0388 5.6694C21.3599 8.82822 25.96 18.5157 27.0162 22.9697C24.7278 19.1017 19.6231 10.0003 16.2845 6.88839C15.9265 6.55434 15.3633 6.55434 15.0053 6.88839C11.6608 10.0003 6.5737 19.1076 4.28536 22.9814C5.34152 18.5274 9.92992 8.82822 13.2509 5.6694C13.4504 5.48187 13.5561 5.21814 13.5443 4.94856C13.5326 4.67898 13.4035 4.42697 13.1923 4.25702C11.5904 2.98529 9.88885 1.83076 8.14033 0.822756C7.82935 0.641079 7.43622 0.658661 7.13698 0.863779C3.05905 3.67097 0.624023 8.2832 0.624023 13.206C0.624023 16.8044 1.92075 20.2738 4.28536 22.9814C7.11351 26.2984 11.2501 28.209 15.6449 28.209C20.0397 28.209 24.1822 26.3043 27.0162 22.9755C29.369 20.2797 30.6658 16.8103 30.6658 13.206C30.6658 8.2832 28.2307 3.67097 24.1587 0.863779Z" fill="#FFB548"/>
</svg>
