<svg width="22" height="17" viewBox="0 0 22 17" fill="none" xmlns="http://www.w3.org/2000/svg">
<path fill-rule="evenodd" clip-rule="evenodd" d="M21.9748 2.81639C21.2018 3.13839 20.3708 3.35339 19.4998 3.45139C20.3898 2.95139 21.0728 2.15939 21.3948 1.21739C20.5608 1.67939 19.6388 2.01539 18.6568 2.19739C17.8718 1.41139 16.7508 0.921387 15.5118 0.921387C13.1318 0.921387 11.2008 2.73039 11.2008 4.96039C11.2008 5.27739 11.2388 5.58639 11.3128 5.88139C7.7308 5.71239 4.5548 4.10439 2.4288 1.66139C2.0578 2.25839 1.8458 2.95139 1.8458 3.69239C1.8458 5.09239 2.6068 6.33039 3.7628 7.05439C3.0568 7.03239 2.3928 6.85139 1.8108 6.54839C1.8108 6.56639 1.8108 6.58139 1.8108 6.60039C1.8108 8.55739 3.2958 10.1894 5.2678 10.5604C4.9068 10.6524 4.5248 10.7004 4.1328 10.7004C3.8548 10.7004 3.5848 10.6764 3.3218 10.6304C3.8698 12.2334 5.4618 13.4024 7.3478 13.4354C5.8728 14.5184 4.0148 15.1634 1.9948 15.1634C1.6468 15.1634 1.3038 15.1444 0.966797 15.1074C2.8738 16.2524 5.1398 16.9224 7.5738 16.9224C15.5018 16.9224 19.8368 10.7664 19.8368 5.42939C19.8368 5.25339 19.8318 5.08039 19.8238 4.90639C20.6658 4.33639 21.3968 3.62539 21.9748 2.81639Z" fill="white"/>
</svg>
